M48
INCH,TZ
T1C0.0120
T2C0.0157
T3C0.0354
T4C0.0400
%
G90
G05
T1
X21100Y-30900
X21500Y-26225
X21500Y-27800
X21500Y-29375
X21700Y-24325
X22125Y-22450
X22250Y-26225
X22250Y-27800
X22250Y-29375
X22450Y-24400
X22750Y-20625
X22850Y-22625
X23000Y-26225
X23000Y-27800
X23000Y-29375
X23200Y-24500
X23375Y-34375
X23450Y-20040
X23450Y-22034
X23475Y-20875
X23550Y-34800
X23575Y-22800
X23600Y-18900
X23700Y-23929
X23750Y-26225
X23750Y-27800
X23750Y-29375
X23806Y-31370
X23902Y-34465
X23925Y-24575
X23925Y-35200
X23989Y-31095
X24045Y-30770
X24175Y-21150
X24175Y-25696
X24275Y-19250
X24300Y-22975
X24500Y-26275
X24500Y-27800
X24500Y-29375
X24500Y-30962
X24675Y-24675
X24775Y-17125
X24875Y-21400
X24875Y-27310
X24950Y-19575
X25050Y-23125
X25250Y-26275
X25250Y-27800
X25250Y-29375
X25250Y-30950
X25334Y-31805
X25375Y-17600
X25425Y-24800
X25575Y-21650
X25580Y-60675
X25625Y-19900
X25625Y-28885
X25675Y-31800
X25697Y-33035
X25775Y-23350
X25802Y-32105
X25951Y-32796
X25975Y-18025
X26000Y-26300
X26000Y-27800
X26000Y-29375
X26125Y-15525
X26127Y-32161
X26175Y-32529
X26175Y-24925
X26275Y-20275
X26275Y-21950
X26275Y-31575
X26375Y-30460
X26475Y-23550
X26550Y-18500
X26620Y-51700
X26650Y-16075
X26794Y-33434
X26925Y-20650
X26950Y-22250
X27150Y-16625
X27150Y-18925
X27250Y-33595
X27550Y-14225
X27600Y-21000
X27675Y-17150
X27675Y-33850
X27775Y-19375
X28000Y-14825
X28175Y-17700
X28375Y-19825
X28450Y-15425
X28725Y-18225
X28900Y-16025
X29100Y-13100
X29275Y-18750
X29300Y-19295
X29325Y-16625
X29475Y-13750
X29723Y-17775
X29800Y-17225
X29850Y-14400
X30225Y-15050
X30275Y-17800
X30402Y-16275
X30600Y-15700
X30775Y-12175
X31000Y-16350
X31075Y-12850
X31329Y-14825
X31350Y-13550
X31400Y-16975
X31650Y-14250
X31975Y-14925
X32275Y-15600
X32493Y-13450
X32550Y-11425
X32625Y-16275
X32750Y-12125
X32975Y-12850
X33200Y-13575
X33400Y-14300
X33650Y-15000
X33885Y-12175
X33900Y-15725
X34400Y-10900
X34525Y-11625
X34580Y-60675
X34675Y-12375
X34800Y-13100
X34925Y-13850
X35075Y-14575
X35225Y-15325
X35507Y-11075
X35580Y-51700
X36300Y-10575
X36350Y-11325
X36375Y-12075
X36425Y-12825
X36475Y-13575
X36525Y-14325
X36600Y-15075
X39350Y-15050
X39450Y-14300
X39500Y-13550
X39550Y-12800
X39600Y-12050
X39650Y-11300
X39700Y-10550
X40498Y-11050
X40750Y-15300
X40900Y-14550
X41050Y-13850
X41200Y-13100
X41350Y-12350
X41450Y-11650
X41600Y-10900
X42100Y-15700
X42107Y-12200
X42300Y-15000
X42550Y-14300
X42800Y-13600
X43000Y-12900
X43250Y-12150
X43400Y-16250
X43450Y-11450
X43507Y-13450
X43580Y-60675
X43700Y-15600
X44000Y-14900
X44300Y-14250
X44580Y-51700
X44600Y-16950
X44650Y-13550
X44657Y-14850
X44950Y-12850
X45000Y-16350
X45250Y-12200
X45350Y-15700
X45579Y-16300
X45700Y-17800
X45750Y-15050
X46100Y-14400
X46150Y-17200
X46254Y-17800
X46500Y-13750
X46650Y-16600
X46700Y-18750
X46700Y-19295
X46900Y-13100
X47100Y-16000
X47250Y-18250
X47550Y-15450
X47625Y-40400
X47650Y-19800
X47750Y-17700
X47775Y-33495
X48000Y-14850
X48200Y-19350
X48289Y-32631
X48300Y-17150
X48400Y-21000
X48450Y-14250
X48601Y-32523
X48800Y-18900
X48850Y-16650
X49050Y-20600
X49050Y-22250
X49088Y-32840
X49141Y-33429
X49161Y-32511
X49203Y-33753
X49350Y-16100
X49400Y-18450
X49400Y-34050
X49500Y-23550
X49525Y-38525
X49625Y-30460
X49700Y-20250
X49700Y-21950
X49850Y-15550
X49850Y-24900
X50000Y-18000
X50000Y-26300
X50000Y-27850
X50000Y-29400
X50000Y-31250
X50000Y-36575
X50100Y-32600
X50250Y-23350
X50350Y-19900
X50375Y-28885
X50400Y-21650
X50600Y-17550
X50600Y-24800
X50750Y-26250
X50750Y-27850
X50750Y-29400
X50750Y-30975
X50825Y-37000
X50950Y-23150
X51050Y-19550
X51125Y-27310
X51150Y-21400
X51200Y-17100
X51300Y-24700
X51350Y-40550
X51426Y-30876
X51500Y-26250
X51500Y-27850
X51500Y-29400
X51675Y-37275
X51700Y-22950
X51750Y-19250
X51800Y-21150
X51800Y-25699
X52050Y-24600
X52196Y-31613
X52250Y-26250
X52250Y-27850
X52250Y-29400
X52300Y-23929
X52400Y-18900
X52400Y-22800
X52550Y-20040
X52550Y-20900
X52550Y-22034
X52580Y-60675
X52693Y-31377
X52800Y-24500
X52891Y-32595
X53000Y-26250
X53000Y-27850
X53000Y-29400
X53100Y-32850
X53150Y-22650
X53250Y-20650
X53350Y-31300
X53440Y-32989
X53500Y-35850
X53550Y-24350
X53580Y-51700
X53750Y-26250
X53750Y-27850
X53750Y-29400
X53850Y-22450
X54051Y-31089
X54255Y-31586
X54300Y-24250
X54500Y-26250
X54500Y-27850
X54500Y-29400
X54500Y-31200
X54600Y-36800
X54600Y-31800
X54725Y-32175
X54975Y-33950
T2
X22800Y-38560
X22870Y-42230
X22975Y-33300
X24625Y-35125
X47175Y-34337
X50425Y-40900
X50800Y-42700
X51375Y-41075
X51375Y-42475
X51675Y-38625
X52152Y-31972
X52325Y-35575
X53275Y-35325
X53710Y-42190
X54625Y-35825
X55025Y-37050
X55025Y-38175
X55700Y-33575
T3
X31200Y-32700
X31200Y-41700
X32200Y-32700
X32200Y-41700
X33200Y-32700
X33200Y-41700
X34200Y-32700
X34200Y-41700
X35200Y-32700
X35200Y-41700
X36200Y-32700
X36200Y-41700
X37200Y-32700
X37200Y-41700
X38200Y-32700
X38200Y-41700
X39200Y-32700
X39200Y-41700
X40200Y-32700
X40200Y-41700
X41200Y-32700
X41200Y-41700
X42200Y-32700
X42200Y-41700
X43200Y-32700
X43200Y-41700
X44200Y-32700
X44200Y-41700
X45200Y-32700
X45200Y-41700
X46200Y-32700
X46200Y-41700
T4
X48100Y-61700
X48100Y-68700
X49100Y-61700
X49100Y-68700
X50100Y-61700
X50100Y-68700
X51100Y-61700
X51100Y-68700
X52100Y-61700
X52100Y-68700
X53100Y-61700
X53100Y-68700
X54100Y-61700
X54100Y-68700
X55100Y-61700
X55100Y-68700
X30100Y-61700
X30100Y-68700
X31100Y-61700
X31100Y-68700
X32100Y-61700
X32100Y-68700
X33100Y-61700
X33100Y-68700
X34100Y-61700
X34100Y-68700
X35100Y-61700
X35100Y-68700
X36100Y-61700
X36100Y-68700
X37100Y-61700
X37100Y-68700
X21100Y-43700
X21100Y-50700
X22100Y-43700
X22100Y-50700
X23100Y-43700
X23100Y-50700
X24100Y-43700
X24100Y-50700
X25100Y-43700
X25100Y-50700
X26100Y-43700
X26100Y-50700
X27100Y-43700
X27100Y-50700
X28100Y-43700
X28100Y-50700
X39100Y-61700
X39100Y-68700
X40100Y-61700
X40100Y-68700
X41100Y-61700
X41100Y-68700
X42100Y-61700
X42100Y-68700
X43100Y-61700
X43100Y-68700
X44100Y-61700
X44100Y-68700
X45100Y-61700
X45100Y-68700
X46100Y-61700
X46100Y-68700
X30100Y-52700
X30100Y-59700
X31100Y-52700
X31100Y-59700
X32100Y-52700
X32100Y-59700
X33100Y-52700
X33100Y-59700
X34100Y-52700
X34100Y-59700
X35100Y-52700
X35100Y-59700
X36100Y-52700
X36100Y-59700
X37100Y-52700
X37100Y-59700
X21100Y-61700
X21100Y-68700
X22100Y-61700
X22100Y-68700
X23100Y-61700
X23100Y-68700
X24100Y-61700
X24100Y-68700
X25100Y-61700
X25100Y-68700
X26100Y-61700
X26100Y-68700
X27100Y-61700
X27100Y-68700
X28100Y-61700
X28100Y-68700
X48100Y-52700
X48100Y-59700
X49100Y-52700
X49100Y-59700
X50100Y-52700
X50100Y-59700
X51100Y-52700
X51100Y-59700
X52100Y-52700
X52100Y-59700
X53100Y-52700
X53100Y-59700
X54100Y-52700
X54100Y-59700
X55100Y-52700
X55100Y-59700
X39100Y-52700
X39100Y-59700
X40100Y-52700
X40100Y-59700
X41100Y-52700
X41100Y-59700
X42100Y-52700
X42100Y-59700
X43100Y-52700
X43100Y-59700
X44100Y-52700
X44100Y-59700
X45100Y-52700
X45100Y-59700
X46100Y-52700
X46100Y-59700
X48100Y-43700
X48100Y-50700
X49100Y-43700
X49100Y-50700
X50100Y-43700
X50100Y-50700
X51100Y-43700
X51100Y-50700
X52100Y-43700
X52100Y-50700
X53100Y-43700
X53100Y-50700
X54100Y-43700
X54100Y-50700
X55100Y-43700
X55100Y-50700
X21100Y-52700
X21100Y-59700
X22100Y-52700
X22100Y-59700
X23100Y-52700
X23100Y-59700
X24100Y-52700
X24100Y-59700
X25100Y-52700
X25100Y-59700
X26100Y-52700
X26100Y-59700
X27100Y-52700
X27100Y-59700
X28100Y-52700
X28100Y-59700
X39100Y-43700
X39100Y-50700
X40100Y-43700
X40100Y-50700
X41100Y-43700
X41100Y-50700
X42100Y-43700
X42100Y-50700
X43100Y-43700
X43100Y-50700
X44100Y-43700
X44100Y-50700
X45100Y-43700
X45100Y-50700
X46100Y-43700
X46100Y-50700
X30100Y-43700
X30100Y-50700
X31100Y-43700
X31100Y-50700
X32100Y-43700
X32100Y-50700
X33100Y-43700
X33100Y-50700
X34100Y-43700
X34100Y-50700
X35100Y-43700
X35100Y-50700
X36100Y-43700
X36100Y-50700
X37100Y-43700
X37100Y-50700
T0
M30
